<svg fill="none" xmlns="http://www.w3.org/2000/svg">
<path d="M1813.45 2986.85L1820.02 2926.7L1862.02 2950.77L1813.45 2986.85Z" fill="#318EF5" fill-opacity="0.2"/>
<path d="M1867.58 2915.52L1894.85 2861.51L1925.72 2898.79L1867.58 2915.52Z" fill="#318EF5" fill-opacity="0.2"/>
<path d="M1945.79 2849.66L1944.75 2789.17L1989.44 2807.77L1945.79 2849.66Z" fill="#318EF5" fill-opacity="0.2"/>
<path d="M1969.57 2753.25L1930.02 2707.48L1976.25 2693.12L1969.57 2753.25Z" fill="#318EF5" fill-opacity="0.2"/>
<path d="M1934.2 2674.96L1877.05 2655.11L1909.9 2619.56L1934.2 2674.96Z" fill="#318EF5" fill-opacity="0.2"/>
<path d="M1832.53 2591.57L1775.18 2610.83L1779.41 2562.61L1832.53 2591.57Z" fill="#318EF5" fill-opacity="0.2"/>
<path d="M1720.74 2575.87L1661.33 2564.42L1688.74 2524.52L1720.74 2575.87Z" fill="#318EF5" fill-opacity="0.2"/>
<path d="M1640.99 2505.34L1591.84 2470.06L1633.45 2445.32L1640.99 2505.34Z" fill="#318EF5" fill-opacity="0.2"/>
<path d="M1598.09 2409.93L1574.5 2354.22L1622.9 2354.76L1598.09 2409.93Z" fill="#318EF5" fill-opacity="0.2"/>
<path d="M1603.74 2317.61L1606.97 2257.2L1650.23 2278.91L1603.74 2317.61Z" fill="#318EF5" fill-opacity="0.2"/>
<path d="M1657.77 2241.32L1694.2 2193.01L1717.96 2235.18L1657.77 2241.32Z" fill="#318EF5" fill-opacity="0.2"/>
<path d="M1749.11 2221.02L1807.33 2204.56L1800.77 2252.52L1749.11 2221.02Z" fill="#318EF5" fill-opacity="0.2"/>
<path d="M1847.12 2252.69L1901.09 2280.03L1863.77 2310.86L1847.12 2252.69Z" fill="#318EF5" fill-opacity="0.2"/>
<path d="M1913 2332.41L1951.62 2378.98L1905.11 2392.39L1913 2332.41Z" fill="#318EF5" fill-opacity="0.2"/>
<path d="M1933.8 2436.23L1949.89 2494.55L1901.97 2487.68L1933.8 2436.23Z" fill="#318EF5" fill-opacity="0.2"/>
<path d="M1903.18 2538.17L1899.91 2598.58L1856.66 2576.84L1903.18 2538.17Z" fill="#318EF5" fill-opacity="0.2"/>
<path d="M1844.44 2620.86L1819.12 2675.81L1786.93 2639.66L1844.44 2620.86Z" fill="#318EF5" fill-opacity="0.2"/>
<path d="M1751.36 2681.99L1717.99 2732.46L1691.66 2691.83L1751.36 2681.99Z" fill="#318EF5" fill-opacity="0.2"/>
<path d="M1641.58 2717.13L1589.04 2747.12L1583.86 2699L1641.58 2717.13Z" fill="#318EF5" fill-opacity="0.2"/>
<path d="M1519.43 2713.04L1460.71 2727.6L1468.82 2679.88L1519.43 2713.04Z" fill="#318EF5" fill-opacity="0.2"/>
<path d="M1410.95 2674.01L1350.7 2668.52L1374.01 2626.09L1410.95 2674.01Z" fill="#318EF5" fill-opacity="0.2"/>
<path d="M1293.66 2630.63L1235.63 2647.71L1241.67 2599.69L1293.66 2630.63Z" fill="#318EF5" fill-opacity="0.2"/>
<path d="M1164.09 2620.69L1116.61 2658.19L1104.31 2611.37L1164.09 2620.69Z" fill="#318EF5" fill-opacity="0.2"/>
<path d="M1040.89 2653.51L1007.52 2703.97L981.193 2663.35L1040.89 2653.51Z" fill="#318EF5" fill-opacity="0.2"/>
<path d="M841.194 2779.01L793.292 2815.96L781.527 2769.01L841.194 2779.01Z" fill="#318EF5" fill-opacity="0.2"/>
<path d="M718.743 2785.52L658.309 2782.72L679.705 2739.3L718.743 2785.52Z" fill="#318EF5" fill-opacity="0.2"/>
<path d="M620.368 2731.27L563.479 2710.68L596.785 2675.55L620.368 2731.27Z" fill="#318EF5" fill-opacity="0.2"/>
<path d="M564.909 2642.46L526.069 2596.08L572.516 2582.44L564.909 2642.46Z" fill="#318EF5" fill-opacity="0.2"/>
<path d="M540.559 2547.62L496.493 2506.17L540.996 2487.12L540.559 2547.62Z" fill="#318EF5" fill-opacity="0.2"/>
<path d="M487.44 2458.41L427.531 2449.97L452.892 2408.74L487.44 2458.41Z" fill="#318EF5" fill-opacity="0.2"/>
<path d="M381.687 2426.38L332.926 2462.2L322.273 2414.98L381.687 2426.38Z" fill="#318EF5" fill-opacity="0.2"/>
<path d="M236.731 2482.33L204.309 2533.41L177.231 2493.28L236.731 2482.33Z" fill="#318EF5" fill-opacity="0.2"/>
<path d="M145.81 2537.03L125.904 2594.16L90.382 2561.27L145.81 2537.03Z" fill="#318EF5" fill-opacity="0.2"/>
<path d="M77.2354 2612.58L85.37 2672.53L38.8045 2659.3L77.2354 2612.58Z" fill="#318EF5" fill-opacity="0.2"/>
<path d="M53.0508 2718.17L100.819 2755.3L58.3033 2778.44L53.0508 2718.17Z" fill="#318EF5" fill-opacity="0.2"/>
<path d="M119.939 2790.95L180.259 2786.3L164.367 2832.02L119.939 2790.95Z" fill="#318EF5" fill-opacity="0.2"/>
<path d="M232.013 2809.03L271.574 2763.25L292.476 2806.92L232.013 2809.03Z" fill="#318EF5" fill-opacity="0.2"/>
<path d="M317.898 2750.44L321.464 2690.05L364.61 2711.99L317.898 2750.44Z" fill="#318EF5" fill-opacity="0.2"/>
<path d="M319.031 2539.71L274.965 2498.26L319.468 2479.21L319.031 2539.71Z" fill="#318EF5" fill-opacity="0.2"/>
<path d="M352.422 2643.33L318.441 2593.28L366.023 2584.38L352.422 2643.33Z" fill="#318EF5" fill-opacity="0.2"/>
<path d="M195.813 2376.09L148.161 2338.82L190.749 2315.81L195.813 2376.09Z" fill="#318EF5" fill-opacity="0.2"/>
<path d="M258.877 2451.24L205.994 2421.86L244.471 2392.48L258.877 2451.24Z" fill="#318EF5" fill-opacity="0.2"/>
<path d="M142.75 2285.69L88.952 2258.02L126.467 2227.43L142.75 2285.69Z" fill="#318EF5" fill-opacity="0.2"/>
<path d="M73.7681 2199.51L29.702 2158.05L74.2052 2139.01L73.7681 2199.51Z" fill="#318EF5" fill-opacity="0.2"/>
<path d="M27.8172 2093.97L9.08202 2036.45L57.2628 2041.12L27.8172 2093.97Z" fill="#318EF5" fill-opacity="0.2"/>
<path d="M53.5192 1970.55L49.2141 1910.2L94.8442 1926.36L53.5192 1970.55Z" fill="#318EF5" fill-opacity="0.2"/>
<path d="M101.666 1855.17L91.319 1795.56L138.342 1807.06L101.666 1855.17Z" fill="#318EF5" fill-opacity="0.2"/>
<path d="M109.014 1726.14L71.7476 1678.48L118.625 1666.4L109.014 1726.14Z" fill="#318EF5" fill-opacity="0.2"/>
<path d="M73.5589 1602.97L29.645 1561.36L74.2177 1542.48L73.5589 1602.97Z" fill="#318EF5" fill-opacity="0.2"/>
<path d="M35.3275 1484.86L22.351 1425.76L69.8367 1435.16L35.3275 1484.86Z" fill="#318EF5" fill-opacity="0.2"/>
<path d="M68.5656 1357.62L86.6665 1299.89L123.205 1331.64L68.5656 1357.62Z" fill="#318EF5" fill-opacity="0.2"/>
<path d="M172.803 1274.67L207.503 1225.11L232.738 1266.42L172.803 1274.67Z" fill="#318EF5" fill-opacity="0.2"/>
<path d="M309.725 1238.99L354.3 1198.09L370.028 1243.87L309.725 1238.99Z" fill="#318EF5" fill-opacity="0.2"/>
<path d="M465.889 1239.7L525.428 1228.97L514.241 1276.07L465.889 1239.7Z" fill="#318EF5" fill-opacity="0.2"/>
<path d="M613.987 1279.9L674.377 1283.53L652.385 1326.65L613.987 1279.9Z" fill="#318EF5" fill-opacity="0.2"/>
<path d="M764.563 1325.41L823.48 1311.66L814.703 1359.27L764.563 1325.41Z" fill="#318EF5" fill-opacity="0.2"/>
<path d="M920.642 1341.47L977.157 1319.87L974.902 1368.23L920.642 1341.47Z" fill="#318EF5" fill-opacity="0.2"/>
<path d="M1049.28 1333.51L1095.42 1294.37L1109.35 1340.74L1049.28 1333.51Z" fill="#318EF5" fill-opacity="0.2"/>
<path d="M1189.75 1297.09L1223.11 1246.62L1249.44 1287.24L1189.75 1297.09Z" fill="#318EF5" fill-opacity="0.2"/>
<path d="M1320.99 1228.75L1345.95 1173.64L1378.37 1209.58L1320.99 1228.75Z" fill="#318EF5" fill-opacity="0.2"/>
<path d="M1398.8 1118.95L1393.64 1058.67L1439.5 1074.19L1398.8 1118.95Z" fill="#318EF5" fill-opacity="0.2"/>
<path d="M1461.9 1030.5L1477.69 972.097L1515.46 1002.38L1461.9 1030.5Z" fill="#318EF5" fill-opacity="0.2"/>
<path d="M1578.31 968.148L1615.3 920.274L1638.57 962.723L1578.31 968.148Z" fill="#318EF5" fill-opacity="0.2"/>
<path d="M1710.44 937.957L1751.88 893.872L1770.94 938.367L1710.44 937.957Z" fill="#318EF5" fill-opacity="0.2"/>
<path d="M1833.76 901.372L1858.47 846.146L1891.05 881.94L1833.76 901.372Z" fill="#318EF5" fill-opacity="0.2"/>
<path d="M1923.56 831.85L1927.89 771.506L1970.75 793.995L1923.56 831.85Z" fill="#318EF5" fill-opacity="0.2"/>
<path d="M1953.09 717.189L1903.67 682.287L1945.08 657.222L1953.09 717.189Z" fill="#318EF5" fill-opacity="0.2"/>
<path d="M1876.81 625.806L1816.86 617.682L1842.01 576.32L1876.81 625.806Z" fill="#318EF5" fill-opacity="0.2"/>
<path d="M1717.02 617.659L1666.17 650.432L1658.41 602.65L1717.02 617.659Z" fill="#318EF5" fill-opacity="0.2"/>
<path d="M1561.67 656.347L1517.37 697.551L1501.33 651.877L1561.67 656.347Z" fill="#318EF5" fill-opacity="0.2"/>
<path d="M1416.2 679.985L1362.9 708.617L1358.97 660.37L1416.2 679.985Z" fill="#318EF5" fill-opacity="0.2"/>
<path d="M1254.7 667.403L1194.24 669.445L1212.1 624.452L1254.7 667.403Z" fill="#318EF5" fill-opacity="0.2"/>
<path d="M1130.47 610.389L1074.25 588.036L1108.64 553.966L1130.47 610.389Z" fill="#318EF5" fill-opacity="0.2"/>
<path d="M1065.91 503.153L1026.46 457.28L1072.73 443.039L1065.91 503.153Z" fill="#318EF5" fill-opacity="0.2"/>
<path d="M1020 385.871L966.865 356.935L1005.09 327.236L1020 385.871Z" fill="#318EF5" fill-opacity="0.2"/>
<path d="M957.106 282.82L900.524 261.404L934.34 226.767L957.106 282.82Z" fill="#318EF5" fill-opacity="0.2"/>
<path d="M845.926 207.821L785.564 203.746L807.874 160.786L845.926 207.821Z" fill="#318EF5" fill-opacity="0.2"/>
<path d="M709.193 201.905L670.277 248.228L648.766 204.863L709.193 201.905Z" fill="#318EF5" fill-opacity="0.2"/>
<path d="M578.48 253.623L530.397 290.341L518.862 243.328L578.48 253.623Z" fill="#318EF5" fill-opacity="0.2"/>
<path d="M439.86 266.14L381.202 280.951L389.117 233.196L439.86 266.14Z" fill="#318EF5" fill-opacity="0.2"/>
<path d="M301.951 245.783L242.247 236.005L268.528 195.353L301.951 245.783Z" fill="#318EF5" fill-opacity="0.2"/>
<path d="M197.619 179.912L144.18 151.55L182.084 121.441L197.619 179.912Z" fill="#318EF5" fill-opacity="0.2"/>
<path d="M123.953 79.0356L81.6185 35.8157L126.863 18.6061L123.953 79.0356Z" fill="#318EF5" fill-opacity="0.2"/>
</svg>
