<svg id="Layer_6" data-name="Layer 6" xmlns="http://www.w3.org/2000/svg" viewBox="0 0 2135.2 1929.73"><defs><style>.cls-3{fill:#00152f;}</style></defs><path class="cls-3" d="M1302.48,1451.43c4.89-9.85,15.92-12.28,24.5-5.4l406.79,326c8.58,6.88,6.66,11.54-4.28,10.35l-541.23-58.69c-10.94-1.18-15.88-10.21-11-20.07Z" transform="translate(-104.03 -97.64)"/><path class="cls-3" d="M381.62,1038.65c10.87-1.72,15.36-11,10-20.58L139.14,567c-5.37-9.6-9-8.49-8,2.47l41.57,482.15a18.4,18.4,0,0,0,21.47,16.8Z" transform="translate(-104.03 -97.64)"/><path class="cls-3" d="M890.47,624.14c-9.4,5.71-25.92,8.63-36.71,6.49L303,521.41c-10.79-2.14-10.63-4.44.35-5.11l830.07-50.57c11-.66,12.27,3.46,2.87,9.17Z" transform="translate(-104.03 -97.64)"/><path class="cls-3" d="M1642.67,876.78c-10.61-2.9-18.14-14.19-16.73-25.1l77.87-601.33c1.41-10.91,7.56-12.34,13.66-3.19l518.81,777.72c6.1,9.15,2.41,14.27-8.2,11.38Z" transform="translate(-104.03 -97.64)"/><path class="cls-3" d="M109.59,1734.5c-8.37-7.14-7.15-17,2.7-21.87l365.17-181.22c9.85-4.89,17.36.09,16.67,11.07l-29.51,474.08c-.69,11-8.09,14.11-16.46,7Z" transform="translate(-104.03 -97.64)"/><path class="cls-3" d="M1334.25,97.76c-10.93-1.23-18.71,6.68-17.3,17.59l46.85,360.33c1.41,10.91,7.5,12.31,13.52,3.1l218.11-333.52c6-9.21,2-17.75-8.93-19Z" transform="translate(-104.03 -97.64)"/></svg>