<svg id="Layer_5" data-name="Layer 5" xmlns="http://www.w3.org/2000/svg" viewBox="0 0 1852.15 1968.27"><defs><style>.cls-2{fill:#2e8ff5;}</style></defs><path class="cls-2" d="M1228.6,686.47c-2.32,10.75,4.11,16.14,14.29,12l602-245.88c10.18-4.16,9.59-8.7-1.33-10.08l-527.31-67a22.26,22.26,0,0,0-24.07,17Z" transform="translate(-9.45 -45.32)"/><path class="cls-2" d="M745.87,475.52,140.19,391.76c-10.9-1.51-18.54,6.17-17,17.06L175,770.72c1.56,10.89,10.71,15.43,20.33,10.1l550.5-305.3" transform="translate(-9.45 -45.32)"/><path class="cls-2" d="M500.46,1304.85c11-1,21.82,7,24.14,17.72l105.55,487.9c2.32,10.75-4.77,19.13-15.75,18.62L53.35,1803a22.7,22.7,0,0,1-21.08-20.9L9.48,1370a21,21,0,0,1,18.81-21.8Z" transform="translate(-9.45 -45.32)"/><path class="cls-2" d="M1798.24,1169.93c-1-11-6.66-12.3-12.53-3L1410,1763.1c-5.87,9.3-1.81,18.52,9,20.48l424.64,76.88c10.83,2,18.84-5.4,17.82-16.35Z" transform="translate(-9.45 -45.32)"/><path class="cls-2" d="M905.59,1703.18a19.84,19.84,0,0,1,27.84-4.23l306.89,228.14c8.83,6.56,7.13,13.11-3.77,14.56L697.2,2013.38c-10.9,1.45-14.52-4.63-8-13.52Z" transform="translate(-9.45 -45.32)"/><path class="cls-2" d="M550.33,73.66c-11,.75-12.18,5.89-2.68,11.43L856.1,264.94a18.44,18.44,0,0,0,26.13-7.86L978.52,62c4.87-9.86-.12-17.32-11.1-16.58Z" transform="translate(-9.45 -45.32)"/></svg>