<svg id="Layer_3" data-name="Layer 3" xmlns="http://www.w3.org/2000/svg" viewBox="0 0 1792.91 1901.62"><defs><style>.cls-1{fill:#eaf4fe;}</style></defs><path class="cls-1" d="M536.46,550.76c9.1,6.18,24.06,16.18,33.26,22.22l435.56,286c9.2,6,12.2,3.2,6.67-6.31L813.78,511.79c-5.53-9.51-19-17.29-30-17.29H473.65c-11,0-12.55,5.06-3.45,11.24Z" transform="translate(-203.91 -111.56)"/><path class="cls-1" d="M575,1233.64c-11-.35-15.18,7-9.3,16.27l277.62,439.18a18,18,0,0,0,26.56,4.74l548.26-420.66c8.73-6.69,6.87-12.46-4.12-12.81Z" transform="translate(-203.91 -111.56)"/><path class="cls-1" d="M1487.8,1343.84c-10.89-1.56-17.9,6-15.59,16.71l44.58,206.9c2.31,10.75,10.18,12.81,17.48,4.58l160.92-181.58c7.3-8.23,4.36-16.24-6.53-17.8Z" transform="translate(-203.91 -111.56)"/><path class="cls-1" d="M1311,900.46c-11,.3-16,8.61-11.15,18.48l81.32,165.12a19.65,19.65,0,0,0,26.63,8.79l382.42-196.7c9.79-5,8.79-8.91-2.2-8.61Z" transform="translate(-203.91 -111.56)"/><path class="cls-1" d="M242.21,902.76c-4.52,10,.76,18.94,11.73,19.81l240.12,18.86c11,.87,16.45-6.73,12.19-16.87L381.75,628.44c-4.26-10.14-11.44-10.23-16-.2Z" transform="translate(-203.91 -111.56)"/><path class="cls-1" d="M217.28,1230.54c-2.35-10.75,3.56-15.13,13.15-9.73l317.14,178.38c9.59,5.4,9.11,13.25-1.05,17.45l-246,101.72c-10.16,4.2-20.41-1.15-22.76-11.9Z" transform="translate(-203.91 -111.56)"/><path class="cls-1" d="M1139.28,168.54a20.22,20.22,0,0,0-17,22.76l45.34,317.4c1.56,10.89,7.49,12.1,13.2,2.7l222.26-366.8c5.71-9.4,1.47-15.77-9.41-14.14Z" transform="translate(-203.91 -111.56)"/><path class="cls-1" d="M302.81,169.26c-10.9,1.51-11.38,5.89-1.08,9.75L737.27,342c10.3,3.86,18.06-2,17.23-12.93l-15-200.12a18.6,18.6,0,0,0-21.31-17.2Z" transform="translate(-203.91 -111.56)"/><path class="cls-1" d="M1907.72,1059.65c-2-10.81-9.31-12.6-16.14-4l-128.16,161.66c-6.83,8.62-6.83,22.72,0,31.34l224.14,282.66c6.84,8.62,10.76,6.83,8.71-4Z" transform="translate(-203.91 -111.56)"/><path class="cls-1" d="M212.52,1899.37c-10.74-2.4-11.54-8.54-1.79-13.63l326.54-170.48a21.33,21.33,0,0,1,27.87,8l162.72,276.52c5.58,9.48,1.36,15.27-9.38,12.87Z" transform="translate(-203.91 -111.56)"/></svg>