<?xml version="1.0" standalone="no"?>
<!DOCTYPE svg PUBLIC "-//W3C//DTD SVG 20010904//EN"
 "http://www.w3.org/TR/2001/REC-SVG-20010904/DTD/svg10.dtd">
<svg version="1.0" xmlns="http://www.w3.org/2000/svg"
 width="1000.000000pt" height="1000.000000pt" viewBox="0 0 1000.000000 1000.000000"
 preserveAspectRatio="xMidYMid meet">
<metadata>
Created by potrace 1.11, written by Peter Selinger 2001-2013
</metadata>
<g transform="translate(0.000000,1000.000000) scale(0.100000,-0.100000)"
fill="#000000" stroke="none">
<path d="M8490 9536 c-36 -8 -1152 -321 -2480 -696 -2014 -569 -2430 -689
-2506 -725 -284 -137 -341 -392 -141 -637 46 -56 46 -57 31 -88 -25 -49 -28
-102 -9 -166 23 -79 57 -134 129 -212 60 -64 1565 -1405 1695 -1510 82 -66
221 -136 326 -163 288 -75 612 6 822 204 92 87 1575 1763 1625 1837 94 140
117 264 65 353 -49 83 -125 119 -294 140 l-100 12 529 625 c291 344 547 653
569 687 102 157 108 281 15 330 -41 22 -191 27 -276 9z"/>
<path d="M602 7228 c-65 -32 -90 -170 -58 -324 9 -44 328 -1167 711 -2496 528
-1840 703 -2436 732 -2495 52 -105 146 -202 226 -232 136 -50 279 -13 434 115
l32 26 46 -17 c92 -36 211 -3 327 91 50 39 1405 1568 1544 1741 53 66 111 173
139 258 95 283 37 608 -149 842 -53 68 -1784 1592 -1884 1660 -272 184 -469
88 -491 -239 l-6 -97 -620 521 c-341 286 -653 542 -693 569 -120 79 -226 107
-290 77z"/>
<path d="M7955 5742 c-60 -21 -122 -63 -190 -129 -39 -37 -3102 -3462 -3355
-3751 -122 -138 -176 -268 -168 -400 9 -157 108 -266 298 -332 44 -15 77 -30
74 -33 -10 -10 17 -92 43 -130 36 -53 131 -112 225 -142 54 -17 451 -85 1172
-202 1215 -195 1226 -197 1400 -154 250 60 458 219 580 442 71 130 77 163 270
1366 101 631 187 1177 190 1213 4 36 2 97 -3 136 -40 275 -241 331 -527 147
-20 -12 -21 -12 -18 9 23 136 217 1594 221 1658 15 233 -69 352 -212 302z"/>
</g>
</svg>
