<svg width="23" height="24" viewBox="0 0 23 24" fill="none" xmlns="http://www.w3.org/2000/svg">
<g clip-path="url(#clip0)">
<path d="M22.5019 20.7516L18.0595 16.0781C17.859 15.8672 17.5872 15.75 17.302 15.75H16.5757C17.8055 14.0953 18.5362 12.0141 18.5362 9.75C18.5362 4.36406 14.3879 0 9.26812 0C4.14838 0 0 4.36406 0 9.75C0 15.1359 4.14838 19.5 9.26812 19.5C11.4203 19.5 13.3987 18.7313 14.9716 17.4375V18.2016C14.9716 18.5016 15.083 18.7875 15.2835 18.9984L19.726 23.6719C20.1448 24.1125 20.8221 24.1125 21.2365 23.6719L22.4975 22.3453C22.9163 21.9047 22.9163 21.1922 22.5019 20.7516ZM9.26812 15.75C6.11785 15.75 3.56466 13.0688 3.56466 9.75C3.56466 6.43594 6.1134 3.75 9.26812 3.75C12.4184 3.75 14.9716 6.43125 14.9716 9.75C14.9716 13.0641 12.4228 15.75 9.26812 15.75Z" fill="white"/>
</g>
<defs>
<clipPath id="clip0">
<rect width="22.8138" height="24" fill="white"/>
</clipPath>
</defs>
</svg>
